<?xml version="1.0" standalone="no"?>
<!DOCTYPE svg PUBLIC "-//W3C//DTD SVG 20010904//EN"
 "http://www.w3.org/TR/2001/REC-SVG-20010904/DTD/svg10.dtd">
<svg version="1.0" xmlns="http://www.w3.org/2000/svg"
 width="832.000000pt" height="832.000000pt" viewBox="0 0 832.000000 832.000000"
 preserveAspectRatio="xMidYMid meet">
<metadata>
Created by potrace 1.14, written by Peter Selinger 2001-2017
</metadata>
<g transform="translate(0.000000,832.000000) scale(0.100000,-0.100000)"
fill="#000000" stroke="none">
<path d="M6157 8155 c-1 -2 -27 -5 -57 -9 -30 -3 -66 -8 -80 -11 -14 -3 -38
-7 -53 -10 -87 -16 -247 -94 -343 -166 -78 -58 -214 -194 -214 -213 0 -2 -15
-27 -34 -56 -70 -106 -125 -266 -142 -412 -1 -10 -2 -268 -3 -574 -1 -525 -2
-556 -18 -551 -10 3 -47 17 -83 30 -36 14 -79 28 -95 30 -17 3 -41 9 -55 12
-51 13 -270 13 -342 -1 -84 -16 -225 -61 -233 -75 -4 -5 -12 -9 -20 -9 -23 0
-130 -69 -204 -131 -39 -32 -73 -59 -75 -59 -2 0 -26 20 -53 45 -26 25 -51 45
-54 45 -3 0 -19 11 -35 25 -16 14 -39 28 -51 31 -13 4 -23 9 -23 13 0 10 -118
63 -185 84 -100 32 -167 41 -300 41 -101 0 -136 -3 -219 -19 -38 -8 -144 -44
-178 -62 -26 -13 -28 -12 -28 9 0 13 -2 268 -4 568 -2 300 -5 556 -8 570 -43
226 -135 404 -282 551 -149 149 -307 232 -541 285 -16 4 -90 8 -162 9 -139 3
-215 -8 -333 -47 -36 -12 -65 -20 -65 -19 0 1 -42 -21 -94 -49 -133 -72 -244
-165 -318 -265 -21 -27 -40 -52 -43 -55 -3 -3 -11 -17 -19 -32 -8 -16 -18 -28
-23 -28 -4 0 -8 -8 -8 -19 0 -10 -7 -24 -15 -31 -8 -6 -14 -15 -13 -18 1 -4
-6 -25 -16 -47 -22 -48 -54 -155 -64 -210 -9 -52 -9 -4311 0 -4392 4 -33 9
-72 12 -85 3 -12 7 -36 10 -53 2 -16 7 -46 10 -65 3 -19 8 -46 10 -60 14 -86
101 -400 126 -455 5 -11 23 -55 40 -98 50 -128 184 -397 203 -405 4 -2 7 -8 7
-13 0 -12 62 -113 72 -117 4 -2 8 -8 8 -13 0 -6 5 -15 10 -22 6 -7 43 -57 83
-112 40 -55 81 -106 90 -114 9 -7 17 -17 17 -21 0 -36 478 -489 518 -490 6 0
12 -4 12 -9 0 -7 132 -100 240 -167 118 -73 299 -163 455 -227 134 -55 417
-143 485 -152 14 -2 25 -4 25 -5 0 -1 9 -3 20 -5 11 -2 60 -11 108 -20 49 -9
107 -18 130 -20 23 -2 58 -6 77 -9 101 -16 386 -22 535 -11 110 7 266 26 335
40 14 2 40 7 57 10 18 3 63 12 100 21 99 23 101 24 126 29 12 3 33 9 47 14 14
6 45 16 70 22 53 15 51 14 70 22 8 3 49 17 90 32 96 35 320 134 341 152 8 7
19 13 23 13 19 0 380 222 406 250 3 3 50 41 105 85 173 137 442 416 535 555 8
12 23 31 33 42 9 12 17 25 17 29 0 4 7 14 15 22 49 49 295 494 295 533 0 8 5
14 11 14 5 0 8 4 5 8 -3 5 1 20 9 35 45 87 137 402 169 577 9 47 18 99 21 115
3 17 8 55 11 85 3 30 9 80 14 110 5 30 9 1002 9 2160 1 1811 -1 2116 -14 2185
-16 87 -37 163 -60 210 -7 17 -19 41 -24 55 -44 101 -150 233 -258 321 -39 33
-76 59 -82 59 -6 0 -11 5 -11 10 0 6 -7 10 -15 10 -8 0 -15 3 -15 8 0 4 -15
13 -32 21 -18 8 -51 22 -73 32 -57 26 -125 49 -125 42 0 -3 -6 -1 -12 5 -17
13 -135 31 -231 35 -42 2 -78 3 -80 2z m-4038 -556 c20 -6 41 -15 47 -20 6 -5
14 -6 17 -2 4 3 7 1 7 -5 0 -7 4 -11 8 -9 19 5 125 -91 163 -147 80 -119 74
15 74 -1696 l0 -1525 -462 0 c-301 0 -464 3 -466 10 -2 5 -3 687 -2 1515 1
1190 4 1514 14 1550 52 180 205 319 382 345 24 4 45 8 46 9 6 5 139 -14 172
-25z m4219 7 c147 -49 270 -186 298 -333 9 -47 9 -4174 0 -4258 -3 -33 -8 -73
-11 -90 -2 -16 -6 -43 -9 -60 -13 -83 -16 -102 -21 -125 -3 -14 -7 -34 -9 -45
-19 -98 -90 -322 -136 -430 -7 -16 -13 -33 -12 -37 1 -5 -3 -8 -8 -8 -6 0 -10
-6 -10 -13 0 -22 -126 -259 -166 -314 -13 -17 -24 -35 -24 -38 0 -3 -32 -50
-71 -103 -148 -200 -335 -390 -514 -523 -33 -24 -62 -46 -65 -49 -16 -18 -218
-139 -304 -183 -120 -62 -242 -117 -260 -117 -7 0 -16 -3 -20 -7 -14 -14 -254
-89 -316 -99 -19 -3 -39 -8 -43 -11 -4 -2 -20 -6 -35 -8 -15 -2 -42 -6 -59 -9
-86 -15 -101 -18 -138 -22 -97 -11 -127 -14 -250 -20 -71 -3 -134 -6 -140 -6
-23 -1 -236 13 -257 17 -20 4 -45 8 -128 21 -269 40 -607 162 -870 315 -65 38
-244 159 -281 191 -15 13 -54 46 -88 73 -85 70 -254 244 -334 345 -81 103
-147 197 -147 210 0 6 -4 10 -10 10 -5 0 -10 6 -10 14 0 8 -3 16 -7 18 -27 11
-227 429 -237 492 -1 6 -4 16 -8 21 -5 10 -37 115 -43 145 -2 8 -4 15 -5 15
-1 0 -3 7 -5 15 -2 8 -10 44 -18 80 -16 68 -37 193 -43 245 -1 16 -6 55 -9 85
-7 58 -14 604 -8 630 4 13 135 15 1126 14 617 -1 1123 -2 1124 -3 1 0 -8 -25
-20 -54 -77 -184 -219 -335 -400 -425 -70 -35 -163 -69 -217 -79 -62 -11 -145
-16 -267 -17 l-143 0 0 -268 0 -268 108 -1 c163 0 170 -2 284 -58 87 -42 121
-65 180 -124 91 -90 102 -103 143 -186 36 -71 64 -175 68 -253 1 -26 5 -50 9
-53 5 -6 385 -10 510 -6 l27 1 -4 93 c-3 50 -7 103 -10 117 -3 14 -8 39 -11
55 -13 67 -33 133 -55 183 -10 23 -29 63 -40 90 -43 96 -168 269 -234 324 -11
9 -18 18 -15 20 3 3 40 29 83 58 43 29 110 84 150 121 68 65 87 79 87 62 0 -5
11 -21 25 -37 14 -16 25 -32 25 -36 0 -14 134 -143 194 -187 121 -90 279 -154
436 -177 116 -18 291 -10 357 15 13 5 23 6 23 4 0 -8 143 46 205 77 186 94
348 263 435 451 34 74 56 139 64 187 3 19 10 58 15 85 6 31 9 779 7 1976 l-3
1926 22 66 c26 75 51 115 112 174 107 106 287 147 431 99z m-2813 -1923 c153
-45 276 -178 302 -329 5 -27 8 -299 8 -604 l0 -555 -425 0 -425 0 -1 565 c-1
627 0 634 59 732 40 67 108 128 182 163 38 18 81 35 95 38 48 9 155 4 205 -10z
m1393 1 c74 -19 127 -49 183 -101 57 -53 82 -91 113 -170 l22 -58 -2 -975 c0
-536 -4 -984 -7 -995 -9 -33 -40 -110 -47 -115 -4 -3 -11 -13 -16 -23 -19 -34
-107 -117 -130 -123 -13 -4 -24 -9 -24 -13 0 -11 -59 -32 -134 -47 -44 -9
-118 -5 -184 10 -44 10 -128 57 -169 94 -60 54 -101 117 -123 190 -19 62 -20
94 -20 1016 0 604 4 967 11 995 35 153 173 291 316 317 15 3 30 7 32 10 10 9
126 1 179 -12z"/>
</g>
</svg>
